<svg width="98" height="294" viewBox="0 0 98 294" fill="none" xmlns="http://www.w3.org/2000/svg">
<path d="M97.2063 144.428C96.1035 138.068 93.1343 134.237 92.5405 122.591C91.9466 110.945 91.713 105.505 89.7618 101.521C87.8106 97.5365 90.8731 75.7 88.4978 63.9772C86.1224 52.2544 72.6109 50.9525 66.2484 49.6499C60.1404 48.424 59.379 40.3018 61.2453 35.0151C62.2633 34.1723 62.5627 33.2995 62.7813 32.1562C63.0055 30.9836 62.4245 29.3452 63.2728 26.7402C65.9027 27.1233 68.3629 18.4653 65.224 18.8484C65.5633 17.0861 65.733 15.4005 65.8178 13.8681C66.242 7.20222 60.8127 0 49.0208 0C37.2289 0 31.8843 7.20222 32.2237 13.8681C32.3085 15.4005 32.563 17.1627 32.8175 18.8484C29.6786 18.4653 32.1388 27.1233 34.7687 26.7402C35.617 29.3452 35.0379 30.9836 35.2188 32.1562C35.3962 33.3066 35.6934 34.1723 36.7114 35.0151C38.5777 40.3018 37.7315 48.424 31.7083 49.6499C25.3458 50.9525 11.9191 52.1778 9.45891 63.9772C7.08356 75.7 10.1461 97.5365 8.19489 101.521C6.24371 105.505 6.01002 110.945 5.41618 122.591C4.82235 134.237 1.85316 138.068 0.750323 144.428C-0.352517 150.787 -0.437361 156.38 1.85315 160.288C5.07684 165.498 19.1748 162.926 14.9331 161.93C10.6914 160.934 8.3434 149.524 10.7188 152.359C13.0941 155.194 14.9331 155.422 14.9331 155.422C14.9331 155.422 12.2044 148.379 11.1016 147.383C7.70821 144.318 6.68868 145.883 12.0332 133.854C17.3777 121.748 21.7891 114.699 20.7711 106.041C19.7531 97.3832 25.6915 97.9894 26.3701 88.4119C29.4241 94.9246 24.9004 98.7624 23.1189 105.505C20.7435 114.699 11.8976 130.636 14.1032 152.089C16.3089 173.543 21.1847 186.645 23.8993 201.969C25.5112 211.163 22.629 224.648 24.4105 236.294C26.2768 247.94 31.4602 253.84 31.7147 266.789C31.8843 275.83 30.8663 279.048 27.473 283.568C23.91 288.319 20.3469 292.456 23.6555 293.222C26.8791 293.989 35.0232 294.678 36.3805 292.763C37.8227 290.847 37.0592 288.702 39.3497 286.633C41.6402 284.564 43.2521 283.722 41.3857 278.741C39.5194 273.761 41.0464 272.918 40.7919 270.62C40.3677 266.789 41.0758 267.325 42.6028 256.598C44.1298 245.872 49.3341 239.129 47.0436 226.64C44.5835 213.002 44.1679 211.699 44.3376 205.033C44.5073 198.751 47.0142 182.661 48.2867 168.869C49.5592 155.078 47.1458 147.109 47.1458 147.109L48.8511 146.803L50.1557 147.109C50.1557 147.109 47.7275 155.078 49 168.869C50.2725 182.661 52.5284 198.751 52.6981 205.033C52.8678 211.623 52.847 213.002 50.3868 226.64C48.0963 239.129 53.1665 245.872 54.7783 256.598C56.3053 267.325 56.6274 266.789 56.6274 270.62C56.3729 272.918 57.8003 273.765 55.934 278.745C54.0676 283.726 56.062 284.564 58.3525 286.633C60.643 288.702 59.8795 290.847 61.3217 292.763C62.7638 294.678 70.823 293.989 74.0467 293.222C77.2704 292.456 73.7074 288.319 70.2292 283.568C66.8359 279.048 65.8178 275.83 65.9875 266.789C66.242 253.917 71.4254 247.94 73.2917 236.294C75.1581 224.648 72.2758 211.163 73.8028 201.969C76.5175 186.645 80.931 173.543 83.1367 152.089C85.3423 130.636 76.9586 114.699 74.5833 105.505C72.8018 98.7624 68.278 94.9246 71.332 88.4119C72.0956 97.9128 78.0339 97.3832 76.9311 105.965C75.8282 114.623 80.3244 121.672 85.669 133.777C91.0135 145.883 90.6746 142.787 87.2813 145.852C86.1784 146.848 82.7691 155.422 82.7691 155.422C82.7691 155.422 84.5231 154.924 86.8984 152.089C89.2738 149.255 86.5464 160.934 82.3047 161.93C78.063 162.926 92.7102 165.421 95.849 160.211C98.4789 156.38 98.394 150.787 97.2063 144.428Z" fill="url(#paint0_radial)"/>
<path d="M92.824 144.428C91.8214 138.068 89.1222 134.237 88.5823 122.591C88.0424 110.945 85.7288 105.505 83.955 101.521C82.1812 97.5365 82.1812 75.7 80.0218 63.9772C77.8624 52.2544 68.3764 51.7181 62.5923 50.4156C57.0396 49.1897 55.6514 40.3018 57.348 35.0151C58.2735 34.1723 59.1218 33.3294 59.5846 32.5632C60.3558 31.4906 61.2041 29.3452 61.9753 26.7402C64.3661 27.1233 66.6026 18.4653 63.7491 18.8484C64.0576 17.0861 64.2119 15.4005 64.289 13.8681C64.6746 7.20222 59.7388 0 49.0189 0C38.299 0 33.4403 7.20222 33.7488 13.8681C33.8259 15.4005 34.0573 17.1627 34.2887 18.8484C31.4352 18.4653 33.6717 27.1233 36.0625 26.7402C36.8337 29.3452 37.682 31.414 38.3761 32.5632C38.916 33.3294 39.6872 34.1723 40.6127 35.0151C42.3093 40.3018 40.844 49.1897 35.3684 50.4156C29.5843 51.7181 20.1754 52.1778 17.9389 63.9772C15.7795 75.7 15.7795 97.5365 14.0057 101.521C12.2319 105.505 9.91824 110.945 9.37839 122.591C8.83854 134.237 6.13928 138.068 5.1367 144.428C4.13412 150.787 4.05699 156.38 6.13927 160.288C9.0699 165.498 18.8643 163.046 15.0083 162.05C11.1522 161.054 8.60717 150.021 10.7666 152.856C12.926 155.691 14.854 155.767 14.854 155.767C14.854 155.767 12.1548 148.259 11.1522 147.262C8.06731 144.198 10.5352 145.883 15.3939 133.854C20.2525 121.748 24.2629 114.699 23.3374 106.041C22.4119 97.3832 27.8105 88.8019 28.4274 79.2245C31.2038 85.7371 36.1396 98.7624 34.52 105.505C32.3606 114.699 19.8669 130.636 21.8721 152.089C23.8773 173.543 27.1935 186.645 29.6614 201.969C31.1267 211.163 27.8105 224.648 29.43 236.294C31.1267 247.94 33.0547 253.84 33.2861 266.789C33.4403 275.83 32.5149 279.048 29.43 283.568C26.1909 288.319 22.9518 292.456 25.9595 293.222C28.8902 293.989 36.2938 294.678 37.5278 292.763C38.8389 290.847 38.1448 288.702 40.227 286.633C42.3093 284.564 43.7746 283.722 42.078 278.741C40.3813 273.761 41.7695 272.918 41.5381 270.62C41.1525 266.789 40.5355 267.325 41.9237 256.598C43.3119 245.872 46.7824 239.129 44.7001 226.64C42.4636 213.002 42.9263 211.699 43.0805 205.033C43.2348 198.751 45.934 182.661 47.0909 168.869C48.2477 155.078 46.4739 147.109 46.4739 147.109L48.8647 146.803L51.2554 147.109C51.2554 147.109 49.4816 155.078 50.6385 168.869C51.7953 182.661 54.4945 198.751 54.6488 205.033C54.803 211.623 55.2658 213.002 53.0292 226.64C50.9469 239.129 54.3403 245.872 55.8056 256.598C57.1938 267.325 56.5768 266.789 56.1912 270.62C55.9599 272.918 57.348 273.761 55.6514 278.741C53.9547 283.722 55.42 284.564 57.5023 286.633C59.5846 288.702 58.8905 290.847 60.2015 292.763C61.5126 294.678 68.8392 293.989 71.7698 293.222C74.7004 292.456 71.4613 288.319 68.2993 283.568C65.2145 279.048 64.289 275.83 64.4432 266.789C64.6746 253.917 66.6026 247.94 68.2993 236.294C69.996 224.648 66.6798 211.163 68.068 201.969C70.5358 186.645 73.8521 173.543 75.8572 152.089C77.8624 130.636 65.3687 114.699 63.2093 105.505C61.5897 98.7624 66.5255 85.7371 69.3019 79.2245C69.996 88.7253 75.3945 97.3832 74.3919 105.965C73.3893 114.623 77.4768 121.672 82.3355 133.777C87.1941 145.883 89.662 144.121 86.5772 147.186C85.5746 148.182 82.8753 155.691 82.8753 155.691C82.8753 155.691 84.8034 155.614 86.9628 152.779C89.1222 149.944 86.5772 160.977 82.7211 161.973C78.865 162.969 88.7366 165.421 91.5901 160.211C93.9808 156.38 93.9037 150.787 92.824 144.428Z" fill="#83D8FF"/>
<defs>
<radialGradient id="paint0_radial" cx="0" cy="0" r="1" gradientUnits="userSpaceOnUse" gradientTransform="translate(49 147) rotate(90) scale(147 49)">
<stop stop-color="#D7F2FF" stop-opacity="0"/>
<stop offset="0.875" stop-color="#B0E7FF"/>
</radialGradient>
</defs>
</svg>
