<svg width="22" height="30" viewBox="0 0 22 30" fill="none" xmlns="http://www.w3.org/2000/svg">
<path d="M18.6736 0C18.6736 0 16.151 2.39471 13.4228 3.36017C-6.78061 10.5104 1.74001 24.4442 2.01798 24.4901C2.01798 24.4901 3.15089 22.5597 4.68127 21.4587C14.3925 14.4733 16.3662 6.4328 16.3662 6.4328C16.3662 6.4328 14.1871 16.1081 5.54749 22.1283C3.63933 23.4573 2.34728 26.7295 1.80034 30C1.80034 30 3.15295 29.4653 3.73458 29.3204C3.9614 27.8722 4.4356 26.4855 5.23732 25.2467C17.3121 26.6533 21.2669 17.1332 21.7835 13.8136C23.0029 5.97344 18.6736 0 18.6736 0Z" fill="#96D800"/>
</svg>
